<svg version="1.1" xmlns="http://www.w3.org/2000/svg" xmlns:xlink="http://www.w3.org/1999/xlink" width="57" height="70"><defs/><g><path fill="rgb(132,188,34)" stroke="none" paint-order="stroke fill markers" fill-rule="evenodd" d=" M 29.011367797851562 6.785628914833069 C 29.011367797851562 6.785628914833069 27.525466918945312 6.785628914833069 27.525466918945312 6.785628914833069 C 26.731475830078125 6.785628914833069 26.087860107421875 6.146988272666931 26.087860107421875 5.3594987988471985 C 26.087860107421875 5.3594987988471985 26.087860107421875 5.311426997184753 26.087860107421875 5.311426997184753 C 26.087860107421875 3.4825748801231384 24.593109130859375 1.9998783469200134 22.749237060546875 1.9998783469200134 C 22.749237060546875 1.9998783469200134 22.672027587890625 1.9998783469200134 22.672027587890625 1.9998783469200134 C 20.828231811523438 1.9998783469200134 19.33355712890625 3.4825748801231384 19.33355712890625 5.311426997184753 C 19.33355712890625 5.311426997184753 19.33355712890625 5.3594987988471985 19.33355712890625 5.3594987988471985 C 19.33355712890625 6.146988272666931 18.689865112304688 6.785628914833069 17.8958740234375 6.785628914833069 C 17.8958740234375 6.785628914833069 16.40997314453125 6.785628914833069 16.40997314453125 6.785628914833069 C 14.827255249023438 6.785628914833069 13.544219970703125 8.058469831943512 13.544219970703125 9.628429234027863 C 13.544219970703125 9.628429234027863 13.544219970703125 9.6855748295784 13.544219970703125 9.6855748295784 C 13.544219970703125 11.255920350551605 14.827255249023438 12.52856820821762 16.40997314453125 12.52856820821762 C 16.40997314453125 12.52856820821762 29.011444091796875 12.52856820821762 29.011444091796875 12.52856820821762 C 30.594161987304688 12.52856820821762 31.877197265625 11.25553423166275 31.877197265625 9.6855748295784 C 31.877197265625 9.6855748295784 31.877197265625 9.628429234027863 31.877197265625 9.628429234027863 C 31.877120971679688 8.058469831943512 30.594085693359375 6.785628914833069 29.011367797851562 6.785628914833069 Z M 22.710708618164062 6.785628914833069 C 21.911376953125 6.785628914833069 21.263412475585938 6.142934024333954 21.263412475585938 5.3496527671813965 C 21.263412475585938 4.556950688362122 21.911376953125 3.9142557978630066 22.710708618164062 3.9142557978630066 C 23.510116577148438 3.9142557978630066 24.158004760742188 4.556950688362122 24.158004760742188 5.3496527671813965 C 24.158004760742188 6.142934024333954 23.509963989257812 6.785628914833069 22.710708618164062 6.785628914833069 Z M 29.154266357421875 62.299872159957886 C 29.154266357421875 62.299872159957886 4.86029052734375 62.299872159957886 4.86029052734375 62.299872159957886 C 2.7286376953125 62.299872159957886 1.000732421875 60.58589041233063 1.000732421875 58.471503376960754 C 1.000732421875 58.471503376960754 1.000732421875 12.52856820821762 1.000732421875 12.52856820821762 C 1.000732421875 10.41398811340332 2.7286376953125 8.699813306331635 3.89532470703125 8.699813306331635 C 3.89532470703125 8.699813306331635 11.714920043945312 8.699813306331635 11.714920043945312 8.699813306331635 C 11.649688720703125 9.017975270748138 11.614517211914062 9.347334682941437 11.614517211914062 9.686154007911682 C 11.614517211914062 12.308866560459137 13.765701293945312 14.442752599716187 16.410125732421875 14.442752599716187 C 16.410125732421875 14.442752599716187 29.011138916015625 14.442752599716187 29.011138916015625 14.442752599716187 C 31.6556396484375 14.442752599716187 33.80674743652344 12.308866560459137 33.80674743652344 9.628236174583435 C 33.80674743652344 9.310460329055786 33.77241516113281 9.000599920749664 33.71221923828125 8.699813306331635 C 33.71221923828125 8.699813306331635 39.596160888671875 8.699813306331635 39.596160888671875 8.699813306331635 C 42.692626953125 8.699813306331635 44.42060852050781 10.41398811340332 44.42060852050781 12.52856820821762 C 44.42060852050781 12.52856820821762 44.42060852050781 41.2911434173584 44.42060852050781 41.2911434173584 C 44.09986877441406 41.271451354026794 43.78141784667969 41.2426854968071 43.45564270019531 41.2426854968071 C 42.12095642089844 41.2426854968071 40.832275390625 41.429180920124054 39.596160888671875 41.746763706207275 C 39.596160888671875 41.746763706207275 39.596160888671875 19.228310108184814 39.596160888671875 19.228310108184814 C 39.596160888671875 19.228310108184814 5.825103759765625 19.228310108184814 5.825103759765625 19.228310108184814 C 5.825103759765625 19.228310108184814 5.825103759765625 57.51431465148926 5.825103759765625 57.51431465148926 C 5.825103759765625 57.51431465148926 28.066390991210938 57.51431465148926 28.066390991210938 57.51431465148926 C 28.17205810546875 59.196827709674835 28.542617797851562 60.806750416755676 29.154266357421875 62.299872159957886 Z M 43.45579528808594 44.11425167322159 C 36.52815246582031 44.11425167322159 30.912307739257812 49.68498194217682 30.912307739257812 56.556932866573334 C 30.912307739257812 63.42888379096985 36.52815246582031 68.9998071193695 43.45579528808594 68.9998071193695 C 50.38336181640625 68.9998071193695 55.99928283691406 63.42888379096985 55.99928283691406 56.55712592601776 C 55.99928283691406 49.68498194217682 50.38328552246094 44.11425167322159 43.45579528808594 44.11425167322159 Z M 51.65205383300781 54.00043970346451 C 51.65205383300781 54.00043970346451 43.93293762207031 62.61494517326355 43.93293762207031 62.61494517326355 C 43.552764892578125 63.03928983211517 43.02313232421875 63.256867825984955 42.489837646484375 63.256867825984955 C 42.066253662109375 63.256867825984955 41.640380859375 63.11960256099701 41.28515625 62.83734965324402 C 41.28515625 62.83734965324402 36.46070861816406 59.00878781080246 36.46070861816406 59.00878781080246 C 35.62864685058594 58.3489106297493 35.49345397949219 57.14402663707733 36.159576416015625 56.31869751214981 C 36.82478332519531 55.49240309000015 38.0399169921875 55.35880595445633 38.87190246582031 56.01964843273163 C 38.87190246582031 56.01964843273163 42.265533447265625 58.71244156360626 42.265533447265625 58.71244156360626 C 42.265533447265625 58.71244156360626 48.76768493652344 51.45630234479904 48.76768493652344 51.45630234479904 C 49.474853515625 50.66649615764618 50.695098876953125 50.594484984874725 51.49183654785156 51.29741442203522 C 52.28857421875 52.00053691864014 52.36029052734375 53.209861278533936 51.65205383300781 54.00043970346451 Z M 34.77178955078125 35.499746203422546 C 34.77178955078125 35.499746203422546 9.684738159179688 35.499746203422546 9.684738159179688 35.499746203422546 C 9.151824951171875 35.499746203422546 8.719772338867188 35.071347296237946 8.719772338867188 34.54255747795105 C 8.719772338867188 34.54255747795105 8.719772338867188 33.58575487136841 8.719772338867188 33.58575487136841 C 8.719772338867188 33.05715811252594 9.151824951171875 32.628373086452484 9.684738159179688 32.628373086452484 C 9.684738159179688 32.628373086452484 34.77178955078125 32.628373086452484 34.77178955078125 32.628373086452484 C 35.30470275878906 32.628373086452484 35.73675537109375 33.05715811252594 35.73675537109375 33.58575487136841 C 35.73675537109375 33.58575487136841 35.73675537109375 34.54255747795105 35.73675537109375 34.54255747795105 C 35.736602783203125 35.071347296237946 35.30470275878906 35.499746203422546 34.77178955078125 35.499746203422546 Z M 34.77178955078125 26.88562685251236 C 34.77178955078125 26.88562685251236 9.684738159179688 26.88562685251236 9.684738159179688 26.88562685251236 C 9.151824951171875 26.88562685251236 8.719772338867188 26.45722794532776 8.719772338867188 25.92863118648529 C 8.719772338867188 25.92863118648529 8.719772338867188 24.971249401569366 8.719772338867188 24.971249401569366 C 8.719772338867188 24.442652642726898 9.151824951171875 24.01406067609787 9.684738159179688 24.01406067609787 C 9.684738159179688 24.01406067609787 34.77178955078125 24.01406067609787 34.77178955078125 24.01406067609787 C 35.30470275878906 24.01406067609787 35.73675537109375 24.442652642726898 35.73675537109375 24.971249401569366 C 35.73675537109375 24.971249401569366 35.73675537109375 25.92863118648529 35.73675537109375 25.92863118648529 C 35.736602783203125 26.45722794532776 35.30470275878906 26.88562685251236 34.77178955078125 26.88562685251236 Z M 29.947341918945312 43.156869888305664 C 29.947341918945312 43.156869888305664 9.684738159179688 43.156869888305664 9.684738159179688 43.156869888305664 C 9.151824951171875 43.156869888305664 8.719772338867188 42.72847098112106 8.719772338867188 42.199874222278595 C 8.719772338867188 42.199874222278595 8.719772338867188 41.2426854968071 8.719772338867188 41.2426854968071 C 8.719772338867188 40.71408873796463 9.151824951171875 40.2854967713356 9.684738159179688 40.2854967713356 C 9.684738159179688 40.2854967713356 29.947341918945312 40.2854967713356 29.947341918945312 40.2854967713356 C 30.480255126953125 40.2854967713356 30.912307739257812 40.71408873796463 30.912307739257812 41.2426854968071 C 30.912307739257812 41.2426854968071 30.912307739257812 42.199874222278595 30.912307739257812 42.199874222278595 C 30.912155151367188 42.72847098112106 30.480255126953125 43.156869888305664 29.947341918945312 43.156869888305664 Z M 28.017562866210938 51.77156841754913 C 28.017562866210938 51.77156841754913 9.684738159179688 51.77156841754913 9.684738159179688 51.77156841754913 C 9.151824951171875 51.77156841754913 8.719772338867188 51.342976450920105 8.719772338867188 50.81418663263321 C 8.719772338867188 50.81418663263321 8.719772338867188 49.85699790716171 8.719772338867188 49.85699790716171 C 8.719772338867188 49.328401148319244 9.151824951171875 48.899809181690216 9.684738159179688 48.899809181690216 C 9.684738159179688 48.899809181690216 28.017562866210938 48.899809181690216 28.017562866210938 48.899809181690216 C 28.55047607421875 48.899809181690216 28.982528686523438 49.328401148319244 28.982528686523438 49.85699790716171 C 28.982528686523438 49.85699790716171 28.982528686523438 50.81418663263321 28.982528686523438 50.81418663263321 C 28.982452392578125 51.342976450920105 28.55047607421875 51.77156841754913 28.017562866210938 51.77156841754913 Z"/></g></svg>