<svg version="1.1" xmlns="http://www.w3.org/2000/svg" xmlns:xlink="http://www.w3.org/1999/xlink" width="63" height="71"><defs/><g><path fill="rgb(132,188,34)" stroke="none" paint-order="stroke fill markers" fill-rule="evenodd" d=" M 2.367889404296875 13.555450022220612 C 1.11651611328125 9.766079246997833 3.183929443359375 5.665110528469086 6.976959228515625 4.414857566356659 C 10.769989013671875 3.1644115447998047 14.873764038085938 5.230533719062805 16.12506103515625 9.020097553730011 C 16.12506103515625 9.020097553730011 30.358078002929688 52.12235605716705 30.358078002929688 52.12235605716705 C 29.031707763671875 51.772146224975586 27.62103271484375 51.70824354887009 26.212799072265625 51.96559178829193 C 26.212799072265625 51.96559178829193 12.433425903320312 10.23714429140091 12.433425903320312 10.23714429140091 C 11.853515625 8.481075584888458 9.952499389648438 7.524079918861389 8.194992065429688 8.103451311588287 C 6.4374847412109375 8.682822704315186 5.4796142578125 10.582334578037262 6.0595245361328125 12.338403284549713 C 6.3958282470703125 13.356984913349152 5.8420867919921875 14.455107033252716 4.822723388671875 14.791030466556549 C 3.8033599853515625 15.12714695930481 2.7042694091796875 14.573838591575623 2.367889404296875 13.555450022220612 Z M 58.44554138183594 47.367495000362396 C 58.44554138183594 47.367495000362396 35.12568664550781 55.05550819635391 35.12568664550781 55.05550819635391 C 35.9532470703125 55.99416321516037 36.609375 57.11004680395126 37.02586364746094 58.37130415439606 C 37.04066467285156 58.41628700494766 37.048980712890625 58.46184903383255 37.06309509277344 58.506831884384155 C 37.06309509277344 58.506831884384155 59.66357421875 51.056088745594025 59.66357421875 51.056088745594025 C 60.68293762207031 50.719972252845764 61.23675537109375 49.6218501329422 60.90037536621094 48.60346156358719 C 60.56407165527344 47.58468687534332 59.46490478515625 47.031378507614136 58.44554138183594 47.367495000362396 Z M 35.18016052246094 58.980599761009216 C 36.501495361328125 62.981563687324524 34.326202392578125 67.29509085416794 30.321762084960938 68.61561745405197 C 26.317398071289062 69.93595099449158 21.999923706054688 67.76229470968246 20.678665161132812 63.76113772392273 C 19.357406616210938 59.75978767871857 21.532623291015625 55.446067452430725 25.537063598632812 54.12592697143555 C 29.54150390625 52.80578649044037 33.858978271484375 54.979249715805054 35.18016052246094 58.980599761009216 Z M 31.554824829101562 60.17544466257095 C 30.894195556640625 58.1749626994133 28.73553466796875 57.08823108673096 26.7332763671875 57.748301327228546 C 24.73101806640625 58.408371567726135 23.643447875976562 60.565424740314484 24.304000854492188 62.566099762916565 C 24.964630126953125 64.56658172607422 27.123367309570312 65.65331333875656 29.125625610351562 64.99305003881454 C 31.127883911132812 64.33317285776138 32.21537780761719 62.17592662572861 31.554824829101562 60.17544466257095 Z M 52.552215576171875 18.13095885515213 C 52.552215576171875 18.13095885515213 60.46946716308594 42.106818199157715 60.46946716308594 42.106818199157715 C 60.63761901855469 42.616109013557434 60.360748291015625 43.165170073509216 59.85102844238281 43.33313179016113 C 59.85102844238281 43.33313179016113 34.93243408203125 51.5481972694397 34.93243408203125 51.5481972694397 C 34.42271423339844 51.71635204553604 33.8731689453125 51.43969786167145 33.70501708984375 50.9302139878273 C 33.70501708984375 50.9302139878273 25.787765502929688 26.95416158437729 25.787765502929688 26.95416158437729 C 25.619613647460938 26.445063829421997 25.896484375 25.895809710025787 26.406204223632812 25.7280410528183 C 26.406204223632812 25.7280410528183 51.324798583984375 17.512782514095306 51.324798583984375 17.512782514095306 C 51.83451843261719 17.345013856887817 52.384063720703125 17.621474981307983 52.552215576171875 18.13095885515213 Z M 49.256011962890625 32.05807411670685 C 49.256011962890625 32.05807411670685 40.77113342285156 27.393564879894257 40.77113342285156 27.393564879894257 C 40.77113342285156 27.393564879894257 36.731903076171875 36.18703645467758 36.731903076171875 36.18703645467758 C 36.731903076171875 36.18703645467758 39.406158447265625 37.416825115680695 39.406158447265625 37.416825115680695 C 39.406158447265625 37.416825115680695 41.152679443359375 33.612974882125854 41.152679443359375 33.612974882125854 C 41.152679443359375 33.612974882125854 44.30628967285156 43.16323947906494 44.30628967285156 43.16323947906494 C 44.30628967285156 43.16323947906494 47.32440185546875 42.16801804304123 47.32440185546875 42.16801804304123 C 47.32440185546875 42.16801804304123 44.17124938964844 32.61929792165756 44.17124938964844 32.61929792165756 C 44.17124938964844 32.61929792165756 47.83930969238281 34.63696217536926 47.83930969238281 34.63696217536926 C 47.83930969238281 34.63696217536926 49.256011962890625 32.05807411670685 49.256011962890625 32.05807411670685 Z M 41.85206604003906 17.754299879074097 C 41.85206604003906 17.754299879074097 36.79026794433594 2.4255730509757996 36.79026794433594 2.4255730509757996 C 36.68269348144531 2.100074827671051 36.33143615722656 1.9230393171310425 36.00550842285156 2.0305734276771545 C 36.00550842285156 2.0305734276771545 31.665298461914062 3.461530029773712 31.665298461914062 3.461530029773712 C 31.665298461914062 3.461530029773712 31.643936157226562 3.500528037548065 31.643936157226562 3.500528037548065 C 31.643936157226562 3.500528037548065 31.607620239257812 3.4806429147720337 31.607620239257812 3.4806429147720337 C 31.607620239257812 3.4806429147720337 29.317581176757812 4.2355053424835205 29.317581176757812 4.2355053424835205 C 29.317581176757812 4.2355053424835205 31.203262329101562 9.946010649204254 31.203262329101562 9.946010649204254 C 31.203262329101562 9.946010649204254 28.620330810546875 10.797788918018341 28.620330810546875 10.797788918018341 C 28.620330810546875 10.797788918018341 26.734725952148438 5.08709055185318 26.734725952148438 5.08709055185318 C 26.734725952148438 5.08709055185318 24.444000244140625 5.842146039009094 24.444000244140625 5.842146039009094 C 24.444000244140625 5.842146039009094 24.4267578125 5.879792630672455 24.4267578125 5.879792630672455 C 24.4267578125 5.879792630672455 24.386245727539062 5.861258924007416 24.386245727539062 5.861258924007416 C 24.386245727539062 5.861258924007416 20.074111938476562 7.282948672771454 20.074111938476562 7.282948672771454 C 19.748260498046875 7.390289723873138 19.571258544921875 7.741464853286743 19.6788330078125 8.066963076591492 C 19.6788330078125 8.066963076591492 24.740631103515625 23.396076023578644 24.740631103515625 23.396076023578644 C 24.848129272460938 23.721574246883392 25.199539184570312 23.898223638534546 25.525390625 23.79107564687729 C 25.525390625 23.79107564687729 41.45686340332031 18.53870040178299 41.45686340332031 18.53870040178299 C 41.782562255859375 18.43097323179245 41.959564208984375 18.079991161823273 41.85206604003906 17.754299879074097 Z"/></g></svg>