<svg width="18" height="18" xmlns="http://www.w3.org/2000/svg" xmlns:xlink="http://www.w3.org/1999/xlink" xmlns:svgjs="http://svgjs.com/svgjs" fill="#84bc22"><svg xmlns="http://www.w3.org/2000/svg" width="18" height="18" viewBox="1.001 1.001 16.998 16.998"><path paint-order="stroke fill markers" fill-rule="evenodd" d="M5.16 3.657l2.966 2.967a1.061 1.061 0 1 1-1.502 1.502L3.657 5.16l-.843.842a1.063 1.063 0 0 1-1.813-.75V2.062c0-.586.476-1.062 1.062-1.062H5.25a1.062 1.062 0 0 1 .751 1.813l-.842.843zM16.936 1c.587 0 1.062.476 1.062 1.062V5.25a1.064 1.064 0 0 1-1.062 1.063c-.276 0-.548-.109-.751-.312l-.843-.842-2.967 2.967a1.061 1.061 0 1 1-1.502-1.502l2.967-2.967-.843-.843a1.064 1.064 0 0 1 .752-1.813h3.187zM6.624 10.873a1.062 1.062 0 1 1 1.502 1.503L5.16 15.343l.843.843a1.062 1.062 0 0 1-.752 1.813H2.063a1.062 1.062 0 0 1-1.062-1.062V13.75a1.062 1.062 0 0 1 1.813-.752l.843.843 2.967-2.968zm10.72 1.895c.396.163.655.552.655.982v3.187c0 .587-.475 1.062-1.062 1.062H13.75a1.062 1.062 0 0 1-.752-1.813l.843-.843-2.967-2.967a1.062 1.062 0 1 1 1.502-1.503l2.967 2.968.843-.843a1.065 1.065 0 0 1 1.157-.23z"/></svg></svg>