<svg width="25" height="15" xmlns="http://www.w3.org/2000/svg" xmlns:xlink="http://www.w3.org/1999/xlink" xmlns:svgjs="http://svgjs.com/svgjs" viewBox="0 0.208 25 14.584" fill="#c2c2c2"><svg xmlns="http://www.w3.org/2000/svg" width="25" height="15" viewBox="1.999 2 23.998 14"><path paint-order="stroke fill markers" fill-rule="evenodd" d="M25.836 8.47C25.66 8.206 21.412 2 13.998 2 6.584 2 2.338 8.206 2.16 8.47a.952.952 0 0 0 0 1.06C2.337 9.794 6.584 16 13.998 16c7.414 0 11.661-6.206 11.838-6.47a.953.953 0 0 0 0-1.06zm-11.838 5.633c-5.207 0-8.723-3.703-9.866-5.105 1.14-1.403 4.64-5.1 9.866-5.1 5.207 0 8.723 3.702 9.866 5.104-1.14 1.403-4.639 5.1-9.866 5.1zm-.003-9.537c-.962 0-1.88.308-2.651.89a4.451 4.451 0 0 0-.875 6.208 4.376 4.376 0 0 0 3.532 1.77c.963 0 1.879-.308 2.65-.89a4.41 4.41 0 0 0 1.718-2.922 4.42 4.42 0 0 0-.843-3.287 4.373 4.373 0 0 0-3.53-1.769zm2.971 4.856a2.994 2.994 0 0 1-1.166 1.983A2.961 2.961 0 0 1 14 12.01a2.973 2.973 0 0 1-2.398-1.2 3.022 3.022 0 0 1 .593-4.216 2.965 2.965 0 0 1 1.8-.605 2.97 2.97 0 0 1 2.398 1.201c.481.643.685 1.436.572 2.232zm-1.96-2.38a.958.958 0 0 0-.67.278.968.968 0 0 0-.275.671c0 .25.102.496.276.671.175.176.42.277.668.277a.957.957 0 0 0 .669-.277.96.96 0 0 0 .276-.671.965.965 0 0 0-.276-.671.956.956 0 0 0-.669-.278z"/></svg></svg>