<svg version="1.1" xmlns="http://www.w3.org/2000/svg" xmlns:xlink="http://www.w3.org/1999/xlink" width="21" height="19"><defs/><g><path fill="rgb(0,0,0)" stroke="none" paint-order="stroke fill markers" fill-rule="evenodd" d=" M 18.624679565429688 7.497374653816223 C 18.624679565429688 7.497374653816223 15.910598754882812 7.497374653816223 15.910598754882812 7.497374653816223 C 15.910598754882812 7.497374653816223 15.910598754882812 4.811917781829834 15.910598754882812 4.811917781829834 C 15.910598754882812 4.607274770736694 15.742523193359375 4.441050589084625 15.535919189453125 4.441050589084625 C 15.535919189453125 4.441050589084625 14.7630615234375 4.441050589084625 14.7630615234375 4.441050589084625 C 14.554931640625 4.441050589084625 14.387008666992188 4.607274770736694 14.387008666992188 4.811917781829834 C 14.387008666992188 4.811917781829834 14.387008666992188 7.497374653816223 14.387008666992188 7.497374653816223 C 14.387008666992188 7.497374653816223 11.672927856445312 7.497374653816223 11.672927856445312 7.497374653816223 C 11.46624755859375 7.497374653816223 11.2974853515625 7.663984954357147 11.2974853515625 7.869400203227997 C 11.2974853515625 7.869400203227997 11.2974853515625 8.634108662605286 11.2974853515625 8.634108662605286 C 11.2974853515625 8.838944733142853 11.46624755859375 9.005555033683777 11.672927856445312 9.005555033683777 C 11.672927856445312 9.005555033683777 14.387008666992188 9.005555033683777 14.387008666992188 9.005555033683777 C 14.387008666992188 9.005555033683777 14.387008666992188 11.692170262336731 14.387008666992188 11.692170262336731 C 14.387008666992188 11.89681327342987 14.554931640625 12.06303745508194 14.7630615234375 12.06303745508194 C 14.7630615234375 12.06303745508194 15.535919189453125 12.06303745508194 15.535919189453125 12.06303745508194 C 15.742523193359375 12.06303745508194 15.910598754882812 11.89681327342987 15.910598754882812 11.692170262336731 C 15.910598754882812 11.692170262336731 15.910598754882812 9.00536197423935 15.910598754882812 9.00536197423935 C 15.910598754882812 9.00536197423935 18.624679565429688 9.00536197423935 18.624679565429688 9.00536197423935 C 18.83135986328125 9.00536197423935 19.000045776367188 8.838751673698425 19.000045776367188 8.633529484272003 C 19.000045776367188 8.633529484272003 19.000045776367188 7.869014084339142 19.000045776367188 7.869014084339142 C 19.000045776367188 7.66379189491272 18.83135986328125 7.497374653816223 18.624679565429688 7.497374653816223 Z M 9.50396728515625 9.851734578609467 C 8.933135986328125 9.45152235031128 8.414337158203125 8.864814698696136 8.405258178710938 8.684883296489716 C 8.405258178710938 8.356682240962982 8.4349365234375 8.199724912643433 9.178878784179688 7.626338362693787 C 10.14056396484375 6.880742788314819 10.670272827148438 5.901545286178589 10.670272827148438 4.866553604602814 C 10.670272827148438 3.9277055263519287 10.38043212890625 3.094074845314026 9.887344360351562 2.508525550365448 C 9.887344360351562 2.508525550365448 10.26995849609375 2.508525550365448 10.26995849609375 2.508525550365448 C 10.349075317382812 2.508525550365448 10.426742553710938 2.4842000603675842 10.489990234375 2.4382519125938416 C 10.489990234375 2.4382519125938416 11.557571411132812 1.6729642748832703 11.557571411132812 1.6729642748832703 C 11.69024658203125 1.5785582065582275 11.745864868164062 1.411754846572876 11.695281982421875 1.2580795288085938 C 11.644317626953125 1.104983389377594 11.501266479492188 1.0005382299423218 11.338302612304688 1.0005382299423218 C 11.338302612304688 1.0005382299423218 6.5633697509765625 1.0005382299423218 6.5633697509765625 1.0005382299423218 C 6.040985107421875 1.0005382299423218 5.5101318359375 1.0916622877120972 4.98919677734375 1.2686977982521057 C 3.2491607666015625 1.8627417087554932 2.0322723388671875 3.329607367515564 2.0322723388671875 4.836243271827698 C 2.0322723388671875 6.970515429973602 3.7029571533203125 8.587774395942688 5.9360809326171875 8.638935148715973 C 5.8924407958984375 8.807862162590027 5.8703155517578125 8.974279403686523 5.8703155517578125 9.137800753116608 C 5.8703155517578125 9.466774046421051 5.954620361328125 9.77759975194931 6.127960205078125 10.078579425811768 C 6.1077423095703125 10.078579425811768 6.0882110595703125 10.078579425811768 6.0665435791015625 10.078579425811768 C 3.9377899169921875 10.078579425811768 2.0164031982421875 11.112798869609833 1.286956787109375 12.65071040391922 C 1.0969085693359375 13.050922632217407 1.0000152587890625 13.455575227737427 1.0000152587890625 13.854629099369049 C 1.0000152587890625 14.242678582668304 1.1008758544921875 14.616248607635498 1.2984771728515625 14.967423737049103 C 1.7570037841796875 15.7792387008667 2.7415771484375 16.408612489700317 4.0722198486328125 16.741060853004456 C 4.7590179443359375 16.91307681798935 5.497161865234375 17.000532746315002 6.263458251953125 17.000532746315002 C 6.95208740234375 17.000532746315002 7.6085968017578125 16.912497639656067 8.215591430664062 16.738744139671326 C 10.108139038085938 16.195088744163513 11.331817626953125 14.81606513261795 11.331817626953125 13.225062251091003 C 11.331436157226562 11.697768986225128 10.835372924804688 10.784018635749817 9.50396728515625 9.851734578609467 Z M 3.473541259765625 13.347075819969177 C 3.473541259765625 12.236790955066681 4.899627685546875 11.26222687959671 6.5250701904296875 11.26222687959671 C 6.5250701904296875 11.26222687959671 6.56878662109375 11.26222687959671 6.56878662109375 11.26222687959671 C 6.9224853515625 11.26608806848526 7.2675628662109375 11.317827999591827 7.5927276611328125 11.416288316249847 C 7.704345703125 11.492932915687561 7.8119964599609375 11.565137147903442 7.915374755859375 11.635024666786194 C 8.668319702148438 12.142771005630493 9.16583251953125 12.477536082267761 9.304229736328125 13.015592753887177 C 9.33673095703125 13.150927424430847 9.352981567382812 13.286455154418945 9.352981567382812 13.417928636074066 C 9.352981567382812 14.801006495952606 8.310577392578125 15.50219839811325 6.253692626953125 15.50219839811325 C 4.6947021484375 15.50219839811325 3.473541259765625 14.556014060974121 3.473541259765625 13.347075819969177 Z M 4.9526519775390625 2.851206064224243 C 5.2067108154296875 2.5643197298049927 5.5394287109375 2.4125750064849854 5.9130401611328125 2.4125750064849854 C 5.9130401611328125 2.4125750064849854 5.9553070068359375 2.413154184818268 5.9553070068359375 2.413154184818268 C 7.01068115234375 2.4442367553710938 8.0205078125 3.607999086380005 8.206207275390625 5.007486999034882 C 8.310577392578125 5.791694462299347 8.134262084960938 6.528216242790222 7.7361602783203125 6.977079451084137 C 7.481414794921875 7.264931082725525 7.153350830078125 7.416675806045532 6.7646331787109375 7.416675806045532 C 6.7646331787109375 7.416675806045532 6.7646331787109375 7.416675806045532 6.7638702392578125 7.416675806045532 C 6.7638702392578125 7.416675806045532 6.746856689453125 7.416675806045532 6.746856689453125 7.416675806045532 C 5.713226318359375 7.385207116603851 4.681732177734375 6.177041113376617 4.497100830078125 4.779290735721588 C 4.393341064453125 3.9977861046791077 4.5595855712890625 3.2948566675186157 4.9526519775390625 2.851206064224243 Z"/></g></svg>