<svg version="1.1" xmlns="http://www.w3.org/2000/svg" xmlns:xlink="http://www.w3.org/1999/xlink" width="16" height="19"><defs/><g><path fill="rgb(0,0,0)" stroke="none" paint-order="stroke fill markers" fill-rule="evenodd" d=" M 7.8938751220703125 1.0005382299423218 C 3.3110504150390625 1.0005382299423218 1.000030517578125 4.130997121334076 1.000030517578125 6.742126107215881 C 1.000030517578125 8.322896838188171 1.6281585693359375 9.72914183139801 2.9750518798828125 10.252719044685364 C 3.1959991455078125 10.33920967578888 3.3940582275390625 10.255614936351776 3.4581451416015625 10.022592186927795 C 3.50262451171875 9.861966729164124 3.60821533203125 9.455383539199829 3.6551361083984375 9.285491228103638 C 3.7195281982421875 9.054785192012787 3.694580078125 8.974665522575378 3.5161285400390625 8.773111462593079 C 3.1279449462890625 8.336410999298096 2.879302978515625 7.771712124347687 2.879302978515625 6.97070848941803 C 2.879302978515625 4.648203372955322 4.70318603515625 2.568760097026825 7.628448486328125 2.568760097026825 C 10.2186279296875 2.568760097026825 11.641815185546875 4.077133536338806 11.641815185546875 6.090936601161957 C 11.641815185546875 8.741063594818115 10.410964965820312 10.977850317955017 8.584030151367188 10.977850317955017 C 7.574737548828125 10.977850317955017 6.8198089599609375 10.182638466358185 7.0613555908203125 9.207302153110504 C 7.3511199951171875 8.04296064376831 7.9127197265625 6.786529779434204 7.9127197265625 5.945755898952484 C 7.9127197265625 5.193596303462982 7.4887542724609375 4.566346168518066 6.612060546875 4.566346168518066 C 5.58056640625 4.566346168518066 4.751708984375 5.583383321762085 4.751708984375 6.944838523864746 C 4.751708984375 7.812833786010742 5.059326171875 8.399541437625885 5.059326171875 8.399541437625885 C 5.059326171875 8.399541437625885 4.003875732421875 12.661328673362732 3.8187103271484375 13.407889544963837 C 3.4503631591796875 14.894061148166656 3.763397216796875 16.71615618467331 3.7900238037109375 16.899755716323853 C 3.805511474609375 17.008834302425385 3.952606201171875 17.03528344631195 4.019439697265625 16.95304012298584 C 4.11419677734375 16.834115505218506 5.3433685302734375 15.389451682567596 5.7606964111328125 13.94536703824997 C 5.8791046142578125 13.536467134952545 6.43902587890625 11.418991148471832 6.43902587890625 11.418991148471832 C 6.7743377685546875 12.028479814529419 7.7539520263671875 12.564026713371277 8.79559326171875 12.564026713371277 C 11.8958740234375 12.564026713371277 13.999755859375 9.871040523052216 13.999755859375 6.2656553983688354 C 14.00006103515625 3.5396560430526733 11.576736450195312 1.0005382299423218 7.8938751220703125 1.0005382299423218 Z"/></g></svg>