<svg version="1.1" xmlns="http://www.w3.org/2000/svg" xmlns:xlink="http://www.w3.org/1999/xlink" width="31" height="31"><defs/><g><path fill="rgb(35,196,110)" stroke="none" paint-order="stroke fill markers" fill-rule="evenodd" d=" M 28.844451904296875 18.983786702156067 C 28.844451904296875 18.983786702156067 18.4967041015625 18.983786702156067 18.4967041015625 18.983786702156067 C 18.4967041015625 18.983786702156067 18.4967041015625 29.331772923469543 18.4967041015625 29.331772923469543 C 18.4967041015625 29.667117178440094 18.224105834960938 29.940296292304993 17.887954711914062 29.940296292304993 C 17.887954711914062 29.940296292304993 13.018417358398438 29.940296292304993 13.018417358398438 29.940296292304993 C 12.68218994140625 29.940296292304993 12.40966796875 29.667117178440094 12.40966796875 29.331772923469543 C 12.40966796875 29.331772923469543 12.40966796875 18.983786702156067 12.40966796875 18.983786702156067 C 12.40966796875 18.983786702156067 2.061920166015625 18.983786702156067 2.061920166015625 18.983786702156067 C 1.7256927490234375 18.983786702156067 1.4531707763671875 18.711572885513306 1.4531707763671875 18.37507027387619 C 1.4531707763671875 18.37507027387619 1.4531707763671875 13.505918025970459 1.4531707763671875 13.505918025970459 C 1.4531707763671875 13.168643176555634 1.7256927490234375 12.896429359912872 2.061920166015625 12.896429359912872 C 2.061920166015625 12.896429359912872 12.40966796875 12.896429359912872 12.40966796875 12.896429359912872 C 12.40966796875 12.896429359912872 12.40966796875 2.5490223169326782 12.40966796875 2.5490223169326782 C 12.40966796875 2.213098883628845 12.68218994140625 1.940112829208374 13.018417358398438 1.940112829208374 C 13.018417358398438 1.940112829208374 17.887954711914062 1.940112829208374 17.887954711914062 1.940112829208374 C 18.224105834960938 1.940112829208374 18.4967041015625 2.213098883628845 18.4967041015625 2.5490223169326782 C 18.4967041015625 2.5490223169326782 18.4967041015625 12.896429359912872 18.4967041015625 12.896429359912872 C 18.4967041015625 12.896429359912872 28.844451904296875 12.896429359912872 28.844451904296875 12.896429359912872 C 29.180755615234375 12.896429359912872 29.453125 13.168643176555634 29.453125 13.505918025970459 C 29.453125 13.505918025970459 29.453125 18.37507027387619 29.453125 18.37507027387619 C 29.453125 18.711572885513306 29.180755615234375 18.983786702156067 28.844451904296875 18.983786702156067 Z"/></g></svg>