<svg version="1.1" xmlns="http://www.w3.org/2000/svg" xmlns:xlink="http://www.w3.org/1999/xlink" width="19" height="16"><defs/><g><path fill="rgb(0,0,0)" stroke="none" paint-order="stroke fill markers" fill-rule="evenodd" d=" M 17.999359130859375 2.5396560430526733 C 17.411056518554688 2.8004793524742126 16.777969360351562 2.9769356846809387 16.113525390625 3.0558969974517822 C 16.791854858398438 2.6495068669319153 17.31195068359375 2.0068119764328003 17.557235717773438 1.239979863166809 C 16.922775268554688 1.6158666014671326 16.220489501953125 1.8890457153320312 15.472274780273438 2.0369292497634888 C 14.87359619140625 1.3992539048194885 14.020248413085938 1.0002000331878662 13.075881958007812 1.0002000331878662 C 11.262832641601562 1.0002000331878662 9.792877197265625 2.4695754647254944 9.792877197265625 4.282403647899628 C 9.792877197265625 4.53917270898819 9.821792602539062 4.7895708084106445 9.878021240234375 5.029736757278442 C 7.1492156982421875 4.893436789512634 4.7296295166015625 3.5864243507385254 3.11029052734375 1.6010010242462158 C 2.8276214599609375 2.0855802297592163 2.6658782958984375 2.648927688598633 2.6658782958984375 3.2512731552124023 C 2.6658782958984375 4.389744699001312 3.2454071044921875 5.394426047801971 4.126373291015625 5.983064293861389 C 3.5884246826171875 5.9658820033073425 3.0819854736328125 5.817998468875885 2.639251708984375 5.571847677230835 C 2.6388702392578125 5.585941016674042 2.6388702392578125 5.599455177783966 2.6388702392578125 5.6137415766716 C 2.6388702392578125 7.203393042087555 3.77069091796875 8.52990448474884 5.2728424072265625 8.832042515277863 C 4.997344970703125 8.906563460826874 4.707275390625 8.946526765823364 4.407745361328125 8.946526765823364 C 4.1958770751953125 8.946526765823364 3.9903411865234375 8.92606246471405 3.7899169921875 8.887836694717407 C 4.2079315185546875 10.191567122936249 5.420318603515625 11.141033470630646 6.8568572998046875 11.167096495628357 C 5.733123779296875 12.04764062166214 4.317718505859375 12.57218313217163 2.7792510986328125 12.57218313217163 C 2.514434814453125 12.57218313217163 2.2529754638671875 12.556545317173004 1.9960174560546875 12.52604192495346 C 3.4494171142578125 13.457746803760529 5.17510986328125 14.000823020935059 7.0289764404296875 14.000823020935059 C 13.068405151367188 14.000823020935059 16.370559692382812 8.999811172485352 16.370559692382812 4.662537693977356 C 16.370559692382812 4.520252883434296 16.367584228515625 4.37835419178009 16.361404418945312 4.23761385679245 C 17.002731323242188 3.776008725166321 17.559524536132812 3.1974095702171326 17.999359130859375 2.5396560430526733 Z"/></g></svg>