<svg version="1.1" xmlns="http://www.w3.org/2000/svg" xmlns:xlink="http://www.w3.org/1999/xlink" width="66" height="63"><defs/><g><path fill="rgb(132,188,34)" stroke="none" paint-order="stroke fill markers" fill-rule="evenodd" d=" M 3.320343017578125 21.033896505832672 C 3.320343017578125 21.033896505832672 7.1383209228515625 24.037322282791138 7.1383209228515625 24.037322282791138 C 7.1383209228515625 24.037322282791138 3.5448760986328125 30.96796327829361 3.5448760986328125 30.96796327829361 C 1.7481536865234375 34.16386932134628 4.83477783203125 37.27733898162842 6.8014068603515625 38.36098164319992 C 8.737518310546875 39.42802119255066 11.742355346679688 39.554475128650665 14.54974365234375 39.516056299209595 C 14.54974365234375 39.516056299209595 19.602996826171875 31.199055433273315 19.602996826171875 31.199055433273315 C 19.602996826171875 31.199055433273315 23.420974731445312 33.27849870920181 23.420974731445312 33.27849870920181 C 23.420974731445312 33.27849870920181 16.795608520507812 20.918253898620605 16.795608520507812 20.918253898620605 C 16.795608520507812 20.918253898620605 3.320343017578125 21.033896505832672 3.320343017578125 21.033896505832672 Z M 3.8817901611328125 37.999960482120514 C 3.8817901611328125 37.999960482120514 12.079269409179688 53.24779540300369 12.079269409179688 53.24779540300369 C 13.726226806640625 55.36546444892883 16.83306884765625 55.86626064777374 20.052215576171875 55.789229929447174 C 20.052215576171875 55.789229929447174 28.698837280273438 55.789229929447174 28.698837280273438 55.789229929447174 C 28.698837280273438 55.789229929447174 28.698837280273438 41.349927961826324 28.698837280273438 41.349927961826324 C 28.698837280273438 41.349927961826324 12.303878784179688 41.234478414058685 12.303878784179688 41.234478414058685 C 9.75848388671875 41.388346791267395 6.4271087646484375 40.84951788187027 3.8817901611328125 37.999960482120514 Z M 55.45603942871094 9.899772226810455 C 55.45603942871094 9.899772226810455 50.99604797363281 11.805848121643066 50.99604797363281 11.805848121643066 C 50.99604797363281 11.805848121643066 46.71733093261719 5.281597256660461 46.71733093261719 5.281597256660461 C 44.81211853027344 2.1499800086021423 40.61106872558594 3.3583390712738037 38.71630859375 4.56476753950119 C 36.85099792480469 5.752662301063538 35.28392028808594 8.33714908361435 33.956329345703125 10.8278089761734 C 33.956329345703125 10.8278089761734 38.73149108886719 19.309875667095184 38.73149108886719 19.309875667095184 C 38.73149108886719 19.309875667095184 35.07426452636719 21.663849472999573 35.07426452636719 21.663849472999573 C 35.07426452636719 21.663849472999573 49.023468017578125 21.82177209854126 49.023468017578125 21.82177209854126 C 49.023468017578125 21.82177209854126 55.45603942871094 9.899772226810455 55.45603942871094 9.899772226810455 Z M 40.4454345703125 2.1688998341560364 C 40.4454345703125 2.1688998341560364 23.225357055664062 1.9953393936157227 23.225357055664062 1.9953393936157227 C 20.587188720703125 2.4187187552452087 18.646041870117188 4.91169536113739 17.152359008789062 7.783840715885162 C 17.152359008789062 7.783840715885162 12.96038818359375 15.39791214466095 12.96038818359375 15.39791214466095 C 12.96038818359375 15.39791214466095 25.503875732421875 22.398440659046173 25.503875732421875 22.398440659046173 C 25.503875732421875 22.398440659046173 33.552581787109375 8.017249584197998 33.552581787109375 8.017249584197998 C 34.65281677246094 5.701115429401398 36.736175537109375 3.0289796590805054 40.4454345703125 2.1688998341560364 Z M 41.19441223144531 61.00473082065582 C 41.19441223144531 61.00473082065582 41.700927734375 56.15314698219299 41.700927734375 56.15314698219299 C 41.700927734375 56.15314698219299 49.443084716796875 55.548291742801666 49.443084716796875 55.548291742801666 C 53.08711242675781 55.389210760593414 54.07389831542969 51.103677213191986 53.94450378417969 48.85028737783432 C 53.817169189453125 46.63184130191803 52.331573486328125 43.999089658260345 50.811492919921875 41.62252789735794 C 50.811492919921875 41.62252789735794 41.12818908691406 41.715196430683136 41.12818908691406 41.715196430683136 C 41.12818908691406 41.715196430683136 40.85627746582031 37.35359746217728 40.85627746582031 37.35359746217728 C 40.85627746582031 37.35359746217728 33.9561767578125 49.5601669549942 33.9561767578125 49.5601669549942 C 33.9561767578125 49.5601669549942 41.19441223144531 61.00473082065582 41.19441223144531 61.00473082065582 Z M 55.18756103515625 51.534585893154144 C 55.18756103515625 51.534585893154144 63.68708801269531 36.45509880781174 63.68708801269531 36.45509880781174 C 64.59819030761719 33.9265992641449 63.373443603515625 31.008891880512238 61.6026611328125 28.301233172416687 C 61.6026611328125 28.301233172416687 57.02067565917969 20.918253898620605 57.02067565917969 20.918253898620605 C 57.02067565917969 20.918253898620605 44.8582763671875 28.569971919059753 44.8582763671875 28.569971919059753 C 44.8582763671875 28.569971919059753 53.448974609375 42.62952595949173 53.448974609375 42.62952595949173 C 54.92755126953125 44.721325039863586 56.23881530761719 47.851397812366486 55.18756103515625 51.534585893154144 Z"/></g></svg>